<svg id="Layer_1" data-name="Layer 1" xmlns="http://www.w3.org/2000/svg" viewBox="0 0 480 640"><defs><style>.cls-1{fill:#e66d74;}</style></defs><title>Artboard 1</title><g id="kbdP9N.tif"><path class="cls-1" d="M303,334.35l-.34.28c.2.42.36.86.6,1.26a131.59,131.59,0,0,1,10.84,24.27c6.3,18.06,3.25,34.3-8.27,49.37-5.9,7.72-11.49,15.67-17,23.67-4,5.78-8.48,12.39-10.41,19.39-4.49,16.3-3.58,32.83-.32,49.29,2.16,10.89,7.56,20.39,12.7,30,.3.55.68,1.06,1.23,1.92.39-1.14.68-1.91.93-2.68,1.82-5.63,3.4-11.34,5.49-16.86a48.84,48.84,0,0,1,13-18.56c6-5.56,12.52-10.64,18.47-16.29a153.09,153.09,0,0,0,13.83-14.84c8.46-10.51,10.85-23.39,11.49-36.21,1.31-26.22-7.66-49.32-24.84-68.91-7-8-15.66-14.68-23.58-21.94C305.58,336.4,304.26,335.4,303,334.35Z"/><path class="cls-1" d="M108.48,434a.72.72,0,0,1,0-.14c.9-4.52,1.43-9.16,2.78-13.55a134.15,134.15,0,0,1,15.3-32.21c9.23-14.58,18.84-28.93,28.09-43.5,4.13-6.51,8.09-13.18,11.55-20.07a30.14,30.14,0,0,0-.12-26.79l0-.05a.75.75,0,0,1,1.07-1c10.61,6.37,20.78,12.39,28,22.55,8.93,12.56,11,26.38,7.93,40.82-2.92,13.87-7.38,27.41-10.93,41.15-2.84,11-5.52,22-7.93,33-2.62,12.06.86,22.71,8.27,32.33,4.78,6.2,10.87,10.82,17.29,15.13a.75.75,0,0,0,1.06-1c-2.2-3.66-4.45-7.29-6.37-11.1-3.7-7.34-6.77-14.93-7.17-23.34a48,48,0,0,1,4-20.75c5.34-13,10.72-25.93,16.62-38.65,4.93-10.62,8-21.52,8.06-33.24.11-13.41,0-26.84-4.25-39.71a125.2,125.2,0,0,0-8.4-18.93c-3.9-7.44-9.33-13.82-15.11-20-8.25-8.75-12.36-19.13-10.49-31.33a31,31,0,0,1,1.31-4.94l2.1.16c.31,1.84.63,3.68,1.07,5.48,2.85,11.54,9.46,20.1,20.4,25,12.29,5.52,24.49,11.27,35.38,19.26,11.76,8.63,22.87,18,29.46,31.57,5.5,11.33,7,23.36,7,35.78a121.27,121.27,0,0,1-9.12,45.47A364.2,364.2,0,0,1,253,446.68c-4.18,7.32-7.9,14.83-8.57,23.39-1.07,13.77.51,27.08,8,39.11,5.22,8.4,10.59,16.71,15.89,25.06l1.08,1.7a.75.75,0,0,1-.55,1.15c-1.75.19-3.35.34-4.94.57-17,2.46-32.73-1.3-47.81-9-8.1-4.15-14.6-10.22-21.33-16.14-15.86-14-28-30.74-38.25-49a60.05,60.05,0,0,1-7.16-23.36q-.13-1.24-.27-2.47l-.65-.1a26.88,26.88,0,0,0-.74,3.37c-2.44,26.74,4.17,50.85,20.16,72.6a80.31,80.31,0,0,0,22.67,20.68c1.41.88,2.81,1.8,4.34,2.79a.75.75,0,0,1-.56,1.37c-16.89-3.3-32.29-8.49-45-20.13-14.08-12.92-26.74-26.85-33.92-45A91.84,91.84,0,0,1,109,446.49a17.67,17.67,0,0,0-.49-2.36.79.79,0,0,1,0-.17Z"/><path class="cls-1" d="M303,334.35c1.27,1,2.59,2,3.81,3.16,7.92,7.26,16.54,13.91,23.58,21.94,17.17,19.59,26.14,42.69,24.84,68.91-.64,12.83-3,25.71-11.49,36.21a153.09,153.09,0,0,1-13.83,14.84c-5.94,5.65-12.43,10.73-18.47,16.29a48.84,48.84,0,0,0-13,18.56c-2.09,5.52-3.68,11.24-5.49,16.86-.25.78-.53,1.54-.93,2.68-.55-.86-.94-1.37-1.23-1.92-5.15-9.61-10.55-19.12-12.7-30-3.26-16.46-4.16-33,.32-49.29,1.93-7,6.41-13.61,10.41-19.39,5.52-8,11.11-15.95,17-23.67,11.52-15.06,14.56-31.31,8.27-49.37a131.59,131.59,0,0,0-10.84-24.27c-.24-.4-.4-.84-.6-1.26Z"/></g></svg>