<svg id="Layer_1" data-name="Layer 1" xmlns="http://www.w3.org/2000/svg" viewBox="0 0 480 640"><defs><style>.cls-1{fill:none;stroke:#db124b;stroke-miterlimit:10;stroke-width:10px;}</style></defs><title>Artboard 1</title><path class="cls-1" d="M144,336.14c0-34.85,11.18-117.5,25-117.5"/><path class="cls-1" d="M194,336.14c0-34.85-11.18-117.5-25-117.5"/><path class="cls-1" d="M194,311.78c0,34.85,11.18,117.5,25,117.5"/><path class="cls-1" d="M244,311.78c0,34.85-11.18,117.5-25,117.5"/><path class="cls-1" d="M243,344.14c0-34.85,11.18-117.5,25-117.5"/><path class="cls-1" d="M293,344.14c0-34.85-11.18-117.5-25-117.5"/><path class="cls-1" d="M293,319.78c0,34.85,11.18,117.5,25,117.5"/><path class="cls-1" d="M343,319.78c0,34.85-11.18,117.5-25,117.5"/></svg>