<svg id="Layer_1" data-name="Layer 1" xmlns="http://www.w3.org/2000/svg" viewBox="0 0 1920 1678"><defs><style>.cls-1{fill:#f5e2e3;stroke:#ad0047;}.cls-1,.cls-2,.cls-3,.cls-4{stroke-miterlimit:10;stroke-width:10px;}.cls-2,.cls-3,.cls-4{stroke:#000;}.cls-2{fill-rule:evenodd;}.cls-4{fill:none;}.cls-5{font-size:54px;}.cls-32,.cls-5{font-family:Noteworthy-Light, Noteworthy;}.cls-6{letter-spacing:-0.01em;}.cls-7{letter-spacing:0.01em;}.cls-8{letter-spacing:-0.02em;}.cls-9{letter-spacing:-0.03em;}.cls-10{letter-spacing:-0.03em;}.cls-11{letter-spacing:0em;}.cls-12{letter-spacing:-0.01em;}.cls-13{letter-spacing:0.03em;}.cls-14{letter-spacing:-0.03em;}.cls-15{letter-spacing:0em;}.cls-16{letter-spacing:-0.02em;}.cls-17{letter-spacing:0.01em;}.cls-18{letter-spacing:0em;}.cls-19{letter-spacing:-0.04em;}.cls-20{letter-spacing:0em;}.cls-21{letter-spacing:0.03em;}.cls-22{letter-spacing:-0.03em;}.cls-23{letter-spacing:0.03em;}.cls-24{fill:#e25c68;}.cls-25{fill:#e66d74;}.cls-26{fill:#e77e80;}.cls-27{fill:#ea8c8c;}.cls-28{fill:#ec9a99;}.cls-29{fill:#db124b;}.cls-30{fill:#de3554;}.cls-31{fill:#df485d;}.cls-32{font-size:100px;}.cls-33{letter-spacing:-0.03em;}.cls-34{letter-spacing:-0.07em;}.cls-35{letter-spacing:-0.07em;}.cls-36{letter-spacing:0em;}.cls-37{letter-spacing:0.03em;}.cls-38{letter-spacing:0.01em;}.cls-39{letter-spacing:0.02em;}.cls-40{letter-spacing:0.01em;}.cls-41{letter-spacing:-0.02em;}.cls-42{letter-spacing:-0.04em;}.cls-43{letter-spacing:-0.18em;}.cls-44{letter-spacing:-0.04em;}.cls-45{letter-spacing:-0.05em;}.cls-46{letter-spacing:-0.04em;}.cls-47{letter-spacing:-0.01em;}.cls-48{letter-spacing:0.03em;}.cls-49{letter-spacing:0.01em;}.cls-50{letter-spacing:-0.03em;}.cls-51{letter-spacing:-0.02em;}.cls-52{letter-spacing:0.4em;}.cls-53{letter-spacing:0.09em;}.cls-54{letter-spacing:0.32em;}.cls-55{letter-spacing:-0.14em;}.cls-56{letter-spacing:0.19em;}.cls-57{letter-spacing:-0.11em;}.cls-58{letter-spacing:0.3em;}.cls-59{letter-spacing:-0.14em;}.cls-60{letter-spacing:-0.05em;}.cls-61{letter-spacing:-0.02em;}.cls-62{letter-spacing:-0.07em;}.cls-63{letter-spacing:0.02em;}.cls-64{letter-spacing:0.04em;}.cls-65{letter-spacing:0.4em;}.cls-66{letter-spacing:-0.01em;}.cls-67{letter-spacing:-0.23em;}.cls-68{letter-spacing:0.14em;}.cls-69{letter-spacing:0.03em;}.cls-70{letter-spacing:0.01em;}.cls-71{letter-spacing:0.19em;}.cls-72{letter-spacing:-0.06em;}.cls-73{letter-spacing:-0.07em;}.cls-74{letter-spacing:-0.01em;}.cls-75{letter-spacing:-0.02em;}.cls-76{letter-spacing:-0.05em;}.cls-77{letter-spacing:0.02em;}</style></defs><title>Artboard 1</title><rect class="cls-1" x="5" y="7" width="1909" height="1126"/><rect class="cls-1" x="11" y="1126" width="1909" height="552"/><polygon class="cls-2" points="377.33 210 494.46 412.87 260.2 412.87 377.33 210"/><g id="kbdP9N.tif"><path d="M803.45,365.93V349.66c1.65-11.3,5.9-21.76,11.34-31.63a466.07,466.07,0,0,1,27.82-44.89c5.39-7.6,10.51-15.38,15.16-23.46,6.22-10.8,8.53-21.87,2.73-33.62-.25-.5-.61-1.05-.15-1.63.69-.21,1.16.23,1.64.53,4.54,2.81,9.08,5.6,13.59,8.45a54,54,0,0,1,19,21.15c5.17,10,6.2,21.07,4.4,32.19-1.69,10.46-4.72,20.62-7.74,30.76-4.13,13.87-8.59,27.65-11.13,41.94-1.24,6.94-2.31,13.92-.14,20.86,3.13,10,9.24,18,17.36,24.5,2.73,2.19,5.58,4.22,8.7,6.57a6.5,6.5,0,0,0-1.5-3.46,101.84,101.84,0,0,1-9.77-19.48c-3.57-9.6-3.95-19.21-.59-28.84a434.37,434.37,0,0,1,19.72-47,64,64,0,0,0,6.26-22.12,154.38,154.38,0,0,0-1-35.45c-2.6-19.09-11.47-35.11-24.41-49C883.12,183.61,878,170,885.27,153.49h.51a30,30,0,0,1,.61,3c1.56,14.8,8.48,25.82,22.4,32,15.53,6.86,30.22,15,43.51,25.82,18.11,14.72,27.13,33.41,27.61,56.62.4,19-3.67,36.95-11.08,54.29-6.57,15.37-14.51,30-22.73,44.55-8.59,15.18-8.26,31.16-3.44,47.22,2.67,8.89,8.17,16.49,13.16,24.25q4.19,6.51,8.55,12.92c1,1.44.7,2.13-1,2.32-9.6,1.11-19.19,1.92-28.8-.16-16.52-3.58-30.56-11.31-43.17-22.77a198.55,198.55,0,0,1-39-48.75c-3.6-6.28-6.55-12.81-7.58-20.07-.32-2.28-.77-4.53-1.16-6.8l-.75.32c-2.75,42.95,11.94,77.27,50.35,100a56.44,56.44,0,0,1-6.61-1.12c-10.75-2.19-21.22-5.26-30.73-10.88-7.34-4.33-13.45-10.21-19.53-16.11-12.72-12.33-22.73-26.39-28.43-43.32A116.53,116.53,0,0,1,803.45,365.93Z"/><path d="M997,252.6c.5-.26.84,0,1.15.3,9.44,8.1,19.57,15.47,27.6,25.08,16.93,20.28,26.3,43.43,24.66,70.1-.8,13.06-3.56,25.91-12.12,36.58a151.5,151.5,0,0,1-23.42,22.84c-7.44,6-14.33,12.47-18.94,21-3.5,6.44-5.08,13.61-7.41,20.5-.44,1.29-.29,3.5-1.71,3.58s-1.64-2.11-2.3-3.35c-4.1-7.69-8.48-15.27-10.69-23.8a113.15,113.15,0,0,1-1.56-52.06c1.32-6.35,4.67-11.77,8.1-17.12q9-14,19.26-27.13c5-6.36,9.15-13.17,11.08-21.2,2.33-9.74,1.06-19.13-2-28.47a121.62,121.62,0,0,0-11-24.78C997.4,254,996.74,253.46,997,252.6Z"/></g><circle class="cls-3" cx="954" cy="836" r="110"/><rect class="cls-3" x="1414" y="729" width="179" height="179"/><path class="cls-4" d="M1553.11,233.83c-67.26,25.78-107.39,87.15-89.43,152.48,12.65,46,57.58,82.07,106.79,97.18-83,16-171.62-27.66-190.75-97.27s32.62-139,115.61-155.08a182.66,182.66,0,0,1,57.38-1.92C1575.85,228.94,1560.7,231.32,1553.11,233.83Z"/><path class="cls-4" d="M1552.71,229.22l1.27.16"/><path class="cls-4" d="M1544.48,229.39c3.17-.09,5.89-.14,8.23-.17"/><path d="M1550.45,477.32c-17.55-8.68-36.54-17.92-48.06-32.5a53.9,53.9,0,0,1-5.84-9.53,49.25,49.25,0,0,1-20-23.65,3.3,3.3,0,0,1,0-2.47,36.23,36.23,0,0,0-7.41-2.93l-2.87-9.85c-.59-2-2.79-3.38-5.13-3.62.55-13.36,2.25-26.72,4-39.71.62-4.54-6.39-6.13-9.92-3.73l1-9.12c2.66.38,5.51-.61,6.38-3.49l9.41-30.84a4.31,4.31,0,0,0-1.66-4.79c.86-1,1.71-2,2.54-3,7.53-9.08,14.27-18.94,21.87-28.18q12.71-12.4,26.52-24l2.75-.45c2.86-.5,4.15-2.17,4.26-4a108,108,0,0,1,11.44-3.12c5.34-1.15,6-8.86,0-9.63a123,123,0,0,0-61.84,7.68,4.38,4.38,0,0,0-2.78,3.28,85.68,85.68,0,0,0-28,11.56,6.1,6.1,0,0,0-7.47.5A148.69,148.69,0,0,0,1426,266c-6.37,5.27-13.36,10.1-19.28,15.71A93.62,93.62,0,0,0,1383,318.14c-10.68,29.67-5.68,61.23,3.68,90.63.93,2.9,4.65,3.94,7.66,3.32,9.09,17.43,25.71,32,41.38,45.48a6.05,6.05,0,0,0,5.16,1.42,48.5,48.5,0,0,0,12.78,10.42,6.22,6.22,0,0,0,7.07-.8,120.07,120.07,0,0,0,10.59,5.86l.3.36a7.46,7.46,0,0,0,6,2.51,135,135,0,0,0,71.45,9.11C1554.26,485.69,1554.56,479.35,1550.45,477.32ZM1452,356.8a4.65,4.65,0,0,0-.45-1.94,6.34,6.34,0,0,0,1.15-.58Z"/><text class="cls-5" transform="translate(354.34 1209.79)">8 S<tspan class="cls-6" x="80.46" y="0">h</tspan><tspan class="cls-7" x="102.13" y="0">a</tspan><tspan x="127.17" y="0">d</tspan><tspan class="cls-8" x="151.94" y="0">e</tspan><tspan x="173.68" y="0">s </tspan><tspan class="cls-9" x="212.02" y="0">o</tspan><tspan x="235.17" y="0">f </tspan><tspan class="cls-10" x="268.98" y="0">R</tspan><tspan class="cls-11" x="304.69" y="0">ed: On a s</tspan><tspan class="cls-12" x="516.44" y="0">c</tspan><tspan class="cls-13" x="540.47" y="0">a</tspan><tspan x="566.25" y="0">le </tspan><tspan class="cls-14" x="611.68" y="0">o</tspan><tspan class="cls-15" x="634.83" y="0">f 1-8, how </tspan><tspan class="cls-16" x="856.56" y="0">b</tspan><tspan class="cls-17" x="878.64" y="0">a</tspan><tspan class="cls-18" x="903.68" y="0">d </tspan><tspan class="cls-19" x="942.69" y="0">i</tspan><tspan class="cls-20" x="950.05" y="0">s yo</tspan><tspan class="cls-21" x="1038.07" y="0">u</tspan><tspan x="1062.03" y="0">r </tspan><tspan class="cls-22" x="1094.63" y="0">p</tspan><tspan class="cls-23" x="1116.71" y="0">a</tspan><tspan x="1142.96" y="0">in?</tspan></text><rect class="cls-24" x="981" y="1240" width="180" height="221"/><rect class="cls-25" x="756" y="1240" width="180" height="221"/><rect class="cls-26" x="528" y="1240" width="180" height="221"/><rect class="cls-27" x="294" y="1240" width="180" height="221"/><rect class="cls-28" x="82" y="1240" width="180" height="221"/><rect class="cls-29" x="1644" y="1240" width="180" height="221"/><rect class="cls-30" x="1418" y="1240" width="180" height="221"/><rect class="cls-31" x="1196" y="1240" width="180" height="221"/><path class="cls-4" d="M281,828.5c0-34.85,11.18-117.5,25-117.5"/><path class="cls-4" d="M331,828.5c0-34.85-11.18-117.5-25-117.5"/><path class="cls-4" d="M331,804.14c0,34.85,11.18,117.5,25,117.5"/><path class="cls-4" d="M381,804.14c0,34.85-11.18,117.5-25,117.5"/><path class="cls-4" d="M380,836.5c0-34.85,11.18-117.5,25-117.5"/><path class="cls-4" d="M430,836.5c0-34.85-11.18-117.5-25-117.5"/><path class="cls-4" d="M430,812.14c0,34.85,11.18,117.5,25,117.5"/><path class="cls-4" d="M480,812.14c0,34.85-11.18,117.5-25,117.5"/><text class="cls-32" transform="translate(783.54 123.79)">St<tspan class="cls-33" x="90.12" y="0">i</tspan><tspan x="105.12" y="0">c</tspan><tspan class="cls-34" x="150.62" y="0">k</tspan><tspan x="191.12" y="0">e</tspan><tspan class="cls-35" x="233.37" y="0">r</tspan><tspan class="cls-36" x="260.37" y="0">s</tspan></text><text class="cls-5" transform="translate(1399.7 1011.79)">N<tspan class="cls-37" x="30.78" y="0">u</tspan><tspan class="cls-38" x="54.74" y="0">m</tspan><tspan class="cls-39" x="89.64" y="0">b</tspan><tspan class="cls-40" x="113.8" y="0">n</tspan><tspan class="cls-41" x="138.91" y="0">e</tspan><tspan class="cls-42" x="160.65" y="0">s</tspan><tspan x="182.58" y="0">s</tspan></text><text class="cls-5" transform="translate(1382.05 569.79)"><tspan class="cls-43">T</tspan><tspan x="22.07" y="0">ender </tspan><tspan class="cls-44" x="149.85" y="0">P</tspan><tspan class="cls-23" x="181.44" y="0">a</tspan><tspan x="207.69" y="0">in</tspan></text><text class="cls-5" transform="translate(833.97 545.79)">H<tspan class="cls-45" x="37.39" y="0">o</tspan><tspan x="59.4" y="0">t </tspan><tspan class="cls-46" x="92" y="0">P</tspan><tspan class="cls-23" x="123.59" y="0">a</tspan><tspan class="cls-11" x="149.85" y="0">in</tspan></text><text class="cls-5" transform="translate(863.66 1028.79)">D<tspan class="cls-39" x="33.68" y="0">u</tspan><tspan class="cls-38" x="57.1" y="0">l</tspan><tspan class="cls-11" x="66.01" y="0">l </tspan><tspan class="cls-44" x="88.63" y="0">P</tspan><tspan class="cls-23" x="120.22" y="0">a</tspan><tspan x="146.47" y="0">in</tspan></text><text class="cls-5" transform="translate(257.98 507.79)">S<tspan class="cls-47" x="30.31" y="0">h</tspan><tspan class="cls-48" x="51.97" y="0">a</tspan><tspan x="77.76" y="0">rp </tspan><tspan class="cls-46" x="133.99" y="0">P</tspan><tspan class="cls-23" x="165.58" y="0">a</tspan><tspan class="cls-11" x="191.83" y="0">in</tspan></text><text class="cls-5" transform="translate(241.12 1028.79)">R<tspan class="cls-7" x="37.13" y="0">a</tspan><tspan class="cls-49" x="62.17" y="0">d</tspan><tspan class="cls-50" x="87.48" y="0">i</tspan><tspan class="cls-51" x="95.44" y="0">a</tspan><tspan x="118.6" y="0">ting </tspan><tspan class="cls-44" x="209.72" y="0">P</tspan><tspan class="cls-23" x="241.31" y="0">a</tspan><tspan x="267.57" y="0">in</tspan></text><text class="cls-5" transform="translate(82.04 1545.79)"><tspan class="cls-52" xml:space="preserve">		</tspan><tspan x="72" y="0">(1) </tspan><tspan class="cls-53" x="124.92" y="0">	</tspan><tspan class="cls-52" x="144" y="0" xml:space="preserve">				</tspan><tspan class="cls-15" x="288" y="0">(2) </tspan><tspan class="cls-54" x="364.54" y="0">	</tspan><tspan class="cls-52" x="396" y="0" xml:space="preserve">			</tspan><tspan class="cls-11" x="504" y="0">(3)</tspan><tspan class="cls-55" x="569.54" y="0">	</tspan><tspan class="cls-52" x="576" y="0" xml:space="preserve">				</tspan><tspan x="720" y="0" xml:space="preserve"> (4)</tspan><tspan class="cls-56" x="803.56" y="0">	</tspan><tspan class="cls-52" x="828" y="0" xml:space="preserve">				</tspan><tspan x="972" y="0">(5)</tspan><tspan class="cls-57" x="1035.45" y="0">	</tspan><tspan class="cls-52" x="1044" y="0" xml:space="preserve">			</tspan><tspan x="1152" y="0" xml:space="preserve"> (6)</tspan><tspan class="cls-58" x="1229.49" y="0">	</tspan><tspan class="cls-52" x="1260" y="0" xml:space="preserve">			</tspan><tspan x="1368" y="0" xml:space="preserve">  (7) </tspan><tspan class="cls-59" x="1469.18" y="0">	</tspan><tspan class="cls-52" x="1476" y="0" xml:space="preserve">				</tspan><tspan x="1620" y="0">(8)</tspan><tspan class="cls-45" x="0" y="64.8">i</tspan><tspan x="6.75" y="64.8">t b</tspan><tspan class="cls-60" x="62.44" y="64.8">o</tspan><tspan class="cls-61" x="84.44" y="64.8">t</tspan><tspan x="101.72" y="64.8">he</tspan><tspan class="cls-62" x="146.61" y="64.8">r</tspan><tspan x="161.19" y="64.8">s </tspan><tspan class="cls-63" x="199.53" y="64.8">m</tspan><tspan x="234.76" y="64.8">e </tspan><tspan class="cls-64" x="271.82" y="64.8">	</tspan><tspan class="cls-65" x="288" y="64.8" xml:space="preserve">			</tspan><tspan class="cls-66" x="396" y="64.8">y</tspan><tspan class="cls-8" x="420.37" y="64.8">e</tspan><tspan x="442.1" y="64.8">s</tspan><tspan class="cls-67" x="466.2" y="64.8">	</tspan><tspan class="cls-52" x="468" y="64.8" xml:space="preserve">								</tspan><tspan x="756" y="64.8">ouch! </tspan><tspan class="cls-68" x="878.1" y="64.8">	</tspan><tspan class="cls-52" x="900" y="64.8" xml:space="preserve">					</tspan><tspan class="cls-19" x="1080" y="64.8">r</tspan><tspan class="cls-66" x="1096.2" y="64.8">e</tspan><tspan class="cls-69" x="1118.47" y="64.8">a</tspan><tspan class="cls-70" x="1144.26" y="64.8">l</tspan><tspan class="cls-8" x="1153.17" y="64.8">l</tspan><tspan x="1160.46" y="64.8">y </tspan><tspan class="cls-16" x="1199.61" y="64.8">b</tspan><tspan class="cls-7" x="1221.68" y="64.8">a</tspan><tspan x="1246.72" y="64.8">d</tspan><tspan class="cls-71" x="1271.49" y="64.8">	</tspan><tspan class="cls-52" x="1296" y="64.8" xml:space="preserve">				</tspan><tspan class="cls-49" x="1440" y="64.8">l</tspan><tspan class="cls-72" x="1448.91" y="64.8">i</tspan><tspan class="cls-73" x="1455.18" y="64.8">f</tspan><tspan x="1470.71" y="64.8">e </tspan><tspan class="cls-8" x="1507.77" y="64.8">t</tspan><tspan x="1525.05" y="64.8">h</tspan><tspan class="cls-19" x="1547.12" y="64.8">r</tspan><tspan class="cls-74" x="1563.32" y="64.8">e</tspan><tspan class="cls-75" x="1585.59" y="64.8">a</tspan><tspan class="cls-76" x="1608.74" y="64.8">t</tspan><tspan x="1624.61" y="64.8">e</tspan><tspan class="cls-77" x="1647.42" y="64.8">n</tspan><tspan x="1673.27" y="64.8">ing</tspan></text></svg>